<?xml version="1.0" standalone="no"?>
<!DOCTYPE svg PUBLIC "-//W3C//DTD SVG 20010904//EN"
 "http://www.w3.org/TR/2001/REC-SVG-20010904/DTD/svg10.dtd">
<svg version="1.0" xmlns="http://www.w3.org/2000/svg"
 width="275.000000pt" height="183.000000pt" viewBox="0 0 275.000000 183.000000"
 preserveAspectRatio="xMidYMid meet">

<g transform="translate(0.000000,183.000000) scale(0.100000,-0.100000)"
fill="#000000" stroke="none">
<path d="M1265 1669 c-153 -23 -294 -92 -409 -199 -325 -303 -324 -810 2
-1111 124 -115 263 -178 436 -200 270 -34 564 105 716 338 251 383 114 893
-297 1101 -114 59 -320 91 -448 71z m211 -242 c109 -56 159 -199 106 -303 -90
-176 -324 -176 -414 0 -57 111 7 267 128 312 47 17 138 13 180 -9z m79 -607
c93 -23 192 -71 229 -109 14 -14 32 -43 40 -63 l16 -37 -58 -62 c-71 -78 -138
-121 -239 -155 -151 -51 -330 -28 -466 60 -53 33 -157 137 -157 155 0 14 186
149 255 184 120 61 219 68 380 27z"/>
</g>
</svg>
